<svg width="512" height="512" viewBox="0 0 512 512" fill="none" xmlns="http://www.w3.org/2000/svg">
  <rect width="512" height="512" rx="32" fill="#F8FBFD"/>
  <path d="M126 156L229 67L305 135L280 156L229 110L155 175V244L126 274V156Z" fill="#0E61B2"/>
  <path d="M286 70H359L429 140L389 178L366 155L327 194L286 153L314 125L286 97V70Z" fill="#FFA126"/>
  <path d="M334 180L384 225V320H321V180H334Z" fill="#161616"/>
  <path d="M236 120C190 120 152 157 152 204C152 214 154 223 158 232L123 267V314L175 262C183 266 192 268 201 268C207 268 213 267 219 265L256 302L292 266L253 228C260 217 264 204 264 190C264 151 234 120 236 120ZM201 159C220 159 236 174 236 193C236 212 220 228 201 228C182 228 166 212 166 193C166 174 182 159 201 159Z" fill="#0E61B2"/>
  <path d="M42 354H467V366H42V354Z" fill="#FFA126"/>
  <path d="M42 332V436H73V391H138V366H73V356H146V332H42Z" fill="#161616"/>
  <path d="M167 384C167 352 192 329 226 329C260 329 286 352 286 384C286 416 260 439 226 439C192 439 167 416 167 384ZM198 384C198 400 210 411 226 411C242 411 255 400 255 384C255 368 242 357 226 357C210 357 198 368 198 384Z" fill="#161616"/>
  <path d="M296 332H407V357H367V436H336V357H296V332Z" fill="#161616"/>
  <path d="M417 332H448V436H417V332Z" fill="#161616"/>
</svg>
